<svg xmlns="http://www.w3.org/2000/svg" viewBox="0 0 841.9 595.3"><g fill="#61DAFB"><path d="M666.3 296.5c0-32.5-40.7-63.3-103.1-82.4 14.4-63.6 8.8-114.2-20.2-130.8-6.7-3.9-14.7-5.9-23.7-5.9v24c5 0 9 1 12.3 2.9 14 8.1 20.7 39.2 17.8 79.5-.7 9.9-2 20.3-3.9 31.1-19.6-4.8-41-8.5-63.8-10.9-13.7-18.7-27.9-35.2-42.4-49.2 33.5-31.7 64.8-49.4 86.8-49.4v-24c-29 0-66 21.9-103.9 61.4-37.9-39.4-74.8-61.4-103.8-61.4v24c21.9 0 53.2 17.7 86.8 49.4-14.5 14-28.7 30.5-42.4 49.2-22.8 2.4-44.2 6.1-63.8 10.9-1.9-10.8-3.2-21.2-3.9-31.1-2.9-40.3 3.8-71.4 17.8-79.5 3.3-1.9 7.3-2.9 12.3-2.9v-24c-9 0-17 2-23.7 5.9-29 16.7-34.6 67.3-20.2 130.8-62.5 19.1-103.1 49.9-103.1 82.4 0 32.5 40.7 63.3 103.1 82.4-14.4 63.6-8.8 114.2 20.2 130.8 6.7 3.9 14.7 5.9 23.7 5.9 29 0 66-21.9 103.9-61.4 37.9 39.4 74.8 61.4 103.9 61.4 9 0 17-2 23.7-5.9 29-16.7 34.6-67.3 20.2-130.8 62.4-19.1 103.1-49.9 103.1-82.4zM548.2 471.8c1.6 8.7 3 17.1 4 25.1 8.5 66.7-5.7 95.5-16.2 101.6-2.5 1.4-5.7 2.1-9.6 2.1-12.9 0-36.8-8.9-66.1-30.1 6.9-7.5 13.8-15.4 20.5-23.7 22.2-2.1 43.1-5.5 62.4-9.9zm-209.9 25.1c1-8 2.4-16.4 4-25.1 19.3 4.4 40.2 7.8 62.4 9.9 6.7 8.3 13.5 16.2 20.5 23.7-29.3 21.2-53.2 30.1-66.1 30.1-3.9 0-7.1-.7-9.6-2.1-10.5-6.1-24.7-34.9-16.2-101.6zm-69.7-68.2c-58.4-16.6-95.4-41.8-95.4-64.3 0-22.5 37-47.7 95.4-64.3 4.5 15.8 10.3 32.2 17.4 48.9-7.1 16.7-12.9 33.1-17.4 48.9zm17.4-126.8c-7.1 16.7-12.9 33.1-17.4 48.9-58.4-16.6-95.4-41.8-95.4-64.3 0-22.5 37-47.7 95.4-64.3 4.5 15.8 10.3 32.2 17.4 48.9zm43.2 156.6c-8.8-17.5-16.7-35.4-23.4-53.6 6.7-18.2 14.6-36.1 23.4-53.6 8.7-17.4 18.2-33.8 28.3-48.9 10.2-1 20.5-1.5 30.9-1.5 10.4 0 20.7.5 30.9 1.5 10.1 15.1 19.6 31.5 28.3 48.9 8.8 17.5 16.7 35.4 23.4 53.6-6.7 18.2-14.6 36.1-23.4 53.6-8.7 17.4-18.2 33.8-28.3 48.9-10.2 1-20.5 1.5-30.9 1.5-10.4 0-20.7-.5-30.9-1.5-10.1-15.1-19.6-31.5-28.3-48.9zm228.5-107.7c7.1-16.7 12.9-33.1 17.4-48.9 58.4 16.6 95.4 41.8 95.4 64.3 0 22.5-37 47.7-95.4 64.3-4.5-15.8-10.3-32.2-17.4-48.9zm-35.7-155c10.5 6.1 24.7 34.9 16.2 101.6-1 8-2.4 16.4-4 25.1-19.3-4.4-40.2-7.8-62.4-9.9-6.7-8.3-13.5-16.2-20.5-23.7 29.3-21.2 53.2-30.1 66.1-30.1 3.9 0 7.1.7 9.6 2.1zM359.1 75.7c12.9 0 36.8 8.9 66.1 30.1-6.9 7.5-13.8 15.4-20.5 23.7-22.2 2.1-43.1 5.5-62.4 9.9-1.6-8.7-3-17.1-4-25.1-8.5-66.7 5.7-95.5 16.2-101.6 2.5-1.4 5.7-2.1 9.6-2.1z"/><circle cx="420.9" cy="296.5" r="45.7"/></g></svg>
