<svg xmlns="http://www.w3.org/2000/svg" xmlns:xlink="http://www.w3.org/1999/xlink" aria-hidden="true" role="img" class="iconify iconify--logos" width="32" height="32" preserveAspectRatio="xMidYMid meet" viewBox="0 0 256 257"><defs><linearGradient id="IconifyId1813088fe1fbc01fb466" x1="-.828%" x2="57.636%" y1="7.652%" y2="78.411%"><stop offset="0%" stop-color="#41D1FF"></stop><stop offset="100%" stop-color="#BD34FE"></stop></linearGradient><linearGradient id="IconifyId1813088fe1fbc01fb467" x1="43.376%" x2="50.316%" y1="2.242%" y2="89.03%"><stop offset="0%" stop-color="#FFEA83"></stop><stop offset="8.333%" stop-color="#FFDD35"></stop><stop offset="100%" stop-color="#FFA800"></stop></linearGradient></defs><path fill="url(#IconifyId1813088fe1fbc01fb466)" d="M255.153 37.938L134.897 252.29a10.43 10.43 0 0 1-18.055.013L.879 37.958c-2.103-3.897 1.245-8.67 5.65-8.045l120.326 17.772a10.43 10.43 0 0 0 2.946 0L249.49 29.896c4.405-.62 7.75 4.155 5.663 8.042Z"></path><path fill="url(#IconifyId1813088fe1fbc01fb467)" d="M185.432.063L96.44 17.459a5.22 5.22 0 0 0-4.14 6.066l5.106 28.272a5.22 5.22 0 0 0 6.224 4.088l24.002-5.28a5.22 5.22 0 0 1 6.287 6.079l-7.367 35.56a5.22 5.22 0 0 0 6.208 6.261l14.668-3.28a5.22 5.22 0 0 1 6.393 5.173l-.518 55.564a5.22 5.22 0 0 0 9.165 3.455l1.26-1.55l72.312-144.29a5.22 5.22 0 0 0-5.717-7.555Z"></path></svg>
